<?xml version="1.0" standalone="no"?>
<!DOCTYPE svg PUBLIC "-//W3C//DTD SVG 20010904//EN"
 "http://www.w3.org/TR/2001/REC-SVG-20010904/DTD/svg10.dtd">
<svg version="1.0" xmlns="http://www.w3.org/2000/svg"
 width="512.000000pt" height="512.000000pt" viewBox="0 0 512.000000 512.000000"
 preserveAspectRatio="xMidYMid meet">
<metadata>
Created by potrace 1.14, written by Peter Selinger 2001-2017
</metadata>
<g transform="translate(0.000000,512.000000) scale(0.100000,-0.100000)"
fill="#000000" stroke="none">
<path d="M585 5111 c-104 -27 -207 -118 -244 -216 l-21 -56 0 -2279 0 -2279
22 -58 c29 -78 111 -161 193 -194 l60 -24 1930 -3 c1408 -2 1946 0 1990 8 120
23 224 108 264 216 21 55 21 59 21 2334 l0 2279 -21 56 c-29 77 -102 154 -181
191 l-63 29 -1960 2 c-1078 0 -1973 -2 -1990 -6z m3961 -150 c49 -22 97 -78
113 -130 16 -55 16 -4487 0 -4542 -16 -52 -64 -108 -113 -130 -39 -18 -116
-19 -1989 -19 -1897 0 -1949 0 -1985 19 -48 25 -87 66 -106 113 -14 33 -16
276 -16 2290 0 2172 1 2254 19 2293 20 44 59 84 106 108 27 15 223 16 1980 16
1876 1 1952 0 1991 -18z"/>
<path d="M1800 4758 c-19 -5 -78 -10 -130 -11 -79 -2 -103 -6 -144 -27 -183
-94 -279 -413 -192 -640 8 -19 19 -78 25 -130 13 -121 42 -205 97 -288 24 -35
44 -69 44 -75 0 -6 -7 -37 -16 -69 l-17 -58 -78 0 c-151 0 -252 -37 -350 -127
-69 -64 -103 -118 -130 -204 -16 -53 -19 -94 -19 -310 0 -236 1 -250 20 -269
20 -20 33 -20 943 -20 819 0 925 2 945 16 22 15 22 18 22 269 0 225 -2 260
-20 318 -36 117 -128 226 -237 281 -52 26 -153 46 -238 46 l-81 0 -17 66 -18
65 42 47 c75 85 117 195 124 323 2 41 11 108 20 149 23 105 16 273 -15 353
-76 199 -239 308 -454 306 -50 -1 -107 -5 -126 -11z m-5 -421 c94 -97 145
-122 250 -122 44 0 92 3 107 8 36 10 54 -17 74 -114 24 -114 16 -221 -24 -302
-104 -211 -396 -283 -570 -140 -151 123 -192 397 -87 579 36 62 144 164 174
164 3 0 37 -33 76 -73z m-81 -858 c87 -28 230 -23 315 9 30 12 57 19 60 16 3
-3 11 -24 18 -46 11 -39 11 -42 -15 -62 -14 -12 -74 -58 -132 -103 l-106 -81
-127 100 c-70 55 -127 105 -127 111 0 32 22 88 33 83 7 -3 43 -15 81 -27z"/>
<path d="M3030 4433 c-41 -15 -54 -78 -22 -106 17 -15 70 -17 564 -17 515 0
546 1 561 18 21 23 22 62 3 88 -14 18 -32 19 -553 21 -296 1 -545 -1 -553 -4z"/>
<path d="M3010 3940 c-25 -25 -26 -72 -2 -93 17 -15 70 -17 564 -17 515 0 546
1 561 18 21 23 22 62 3 88 -14 18 -33 19 -560 22 -536 2 -546 2 -566 -18z"/>
<path d="M3110 3473 c-41 -15 -54 -78 -22 -106 17 -15 71 -17 565 -17 l546 0
15 22 c22 32 20 55 -9 83 l-24 25 -528 -1 c-290 0 -535 -3 -543 -6z"/>
<path d="M3012 2984 c-28 -19 -30 -74 -4 -97 17 -15 70 -17 564 -17 515 0 546
1 561 18 23 25 21 68 -3 92 -20 20 -33 20 -558 20 -470 0 -540 -2 -560 -16z"/>
<path d="M886 2284 c-9 -8 -16 -31 -16 -49 0 -70 -137 -65 1692 -65 1635 0
1648 0 1668 20 24 24 26 57 4 88 l-15 22 -1659 0 c-1494 0 -1660 -2 -1674 -16z"/>
<path d="M903 1840 c-25 -10 -38 -48 -29 -85 4 -17 17 -27 44 -35 26 -8 519
-10 1663 -8 1584 3 1627 4 1648 22 27 24 27 68 0 92 -21 19 -64 19 -1663 21
-951 1 -1650 -2 -1663 -7z"/>
<path d="M892 1374 c-28 -19 -30 -74 -4 -97 17 -16 147 -17 1670 -17 1639 0
1652 0 1672 20 11 11 20 31 20 45 0 14 -9 34 -20 45 -20 20 -33 20 -1668 20
-1475 0 -1650 -2 -1670 -16z"/>
<path d="M886 914 c-20 -19 -21 -64 -2 -90 14 -18 36 -19 852 -22 932 -3 884
-6 884 63 0 70 60 65 -875 65 -754 0 -845 -2 -859 -16z"/>
<path d="M3282 464 c-33 -23 -28 -93 8 -111 19 -10 132 -13 466 -13 431 0 442
0 468 21 29 23 35 64 12 95 -14 18 -32 19 -473 22 -409 2 -460 1 -481 -14z"/>
</g>
</svg>
